<?xml version="1.0" standalone="no"?><!DOCTYPE svg PUBLIC "-//W3C//DTD SVG 1.1//EN"
        "http://www.w3.org/Graphics/SVG/1.1/DTD/svg11.dtd">
<svg t="1658577292511" class="icon" viewBox="0 0 1024 1024" version="1.1" xmlns="http://www.w3.org/2000/svg" p-id="2273"
     xmlns:xlink="http://www.w3.org/1999/xlink" width="200" height="200">
    <defs>
        <style type="text/css">@font-face { font-family: feedback-iconfont; src:
            url("//at.alicdn.com/t/font_1031158_u69w8yhxdu.woff2?t=1630033759944") format("woff2"),
            url("//at.alicdn.com/t/font_1031158_u69w8yhxdu.woff?t=1630033759944") format("woff"),
            url("//at.alicdn.com/t/font_1031158_u69w8yhxdu.ttf?t=1630033759944") format("truetype"); }
        </style>
    </defs>
    <path d="M557.3 512l329.3-329.4a32 32 0 1 0-45.2-45.2L512 466.7 182.6 137.4a32 32 0 1 0-45.2 45.2L466.7 512 137.4 841.4a31.9 31.9 0 0 0 0 45.2 31.9 31.9 0 0 0 45.2 0L512 557.3l329.4 329.3a31.9 31.9 0 0 0 45.2 0 31.9 31.9 0 0 0 0-45.2z"
           p-id="2274"></path>
</svg>
