<?xml version="1.0" standalone="no"?><!DOCTYPE svg PUBLIC "-//W3C//DTD SVG 1.1//EN"
        "http://www.w3.org/Graphics/SVG/1.1/DTD/svg11.dtd">
<svg t="1658216781357" class="icon" viewBox="0 0 1024 1024" version="1.1" xmlns="http://www.w3.org/2000/svg" p-id="4615"
     xmlns:xlink="http://www.w3.org/1999/xlink" width="200" height="200">
    <defs>
        <style type="text/css">@font-face { font-family: feedback-iconfont; src:
            url("//at.alicdn.com/t/font_1031158_u69w8yhxdu.woff2?t=1630033759944") format("woff2"),
            url("//at.alicdn.com/t/font_1031158_u69w8yhxdu.woff?t=1630033759944") format("woff"),
            url("//at.alicdn.com/t/font_1031158_u69w8yhxdu.ttf?t=1630033759944") format("truetype"); }
        </style>
    </defs>
    <path d="M523.477333 691.925333l180.992-180.992-180.992-181.077333a42.666667 42.666667 0 1 1 60.330667-60.330667l211.2 211.2c6.4 6.4 10.325333 14.336 11.818667 22.613334l0.597333 5.034666v5.034667a42.496 42.496 0 0 1-12.416 27.648l-211.2 211.2a42.666667 42.666667 0 0 1-60.330667-60.330667z m-298.666666 0l180.992-180.992L224.810667 329.813333a42.666667 42.666667 0 1 1 60.330666-60.330666l211.2 211.2c6.4 6.4 10.325333 14.336 11.818667 22.613333l0.597333 5.034667v5.034666a42.496 42.496 0 0 1-12.416 27.648l-211.2 211.2a42.666667 42.666667 0 0 1-60.330666-60.330666z"
          p-id="4616"></path>
</svg>
