<?xml version="1.0" standalone="no"?><!DOCTYPE svg PUBLIC "-//W3C//DTD SVG 1.1//EN" "http://www.w3.org/Graphics/SVG/1.1/DTD/svg11.dtd"><svg t="1658256899546" class="icon" viewBox="0 0 1024 1024" version="1.1" xmlns="http://www.w3.org/2000/svg" p-id="3941" xmlns:xlink="http://www.w3.org/1999/xlink" width="200" height="200"><defs><style type="text/css">@font-face { font-family: feedback-iconfont; src: url("//at.alicdn.com/t/font_1031158_u69w8yhxdu.woff2?t=1630033759944") format("woff2"), url("//at.alicdn.com/t/font_1031158_u69w8yhxdu.woff?t=1630033759944") format("woff"), url("//at.alicdn.com/t/font_1031158_u69w8yhxdu.ttf?t=1630033759944") format("truetype"); }
</style></defs><path d="M512 1024c-281.6 0-512-230.4-512-512s230.4-512 512-512 512 230.4 512 512S793.6 1024 512 1024zM512 64C262.4 64 64 262.4 64 512s198.4 448 448 448 448-198.4 448-448S761.6 64 512 64z" p-id="3942"></path><path d="M512 640c-19.2 0-32-12.8-32-32L480 275.2C480 256 492.8 243.2 512 243.2S544 256 544 275.2l0 332.8C544 627.2 531.2 640 512 640z" p-id="3943"></path><path d="M512 768 512 768c-19.2 0-32-12.8-32-32l0 0C480 716.8 492.8 704 512 704l0 0c19.2 0 32 12.8 32 32l0 0C544 755.2 531.2 768 512 768z" p-id="3944"></path></svg>