<?xml version="1.0" standalone="no"?><!DOCTYPE svg PUBLIC "-//W3C//DTD SVG 1.1//EN" "http://www.w3.org/Graphics/SVG/1.1/DTD/svg11.dtd"><svg t="1658595382824" class="icon" viewBox="0 0 1024 1024" version="1.1" xmlns="http://www.w3.org/2000/svg" p-id="2374" xmlns:xlink="http://www.w3.org/1999/xlink" width="200" height="200"><defs><style type="text/css">@font-face { font-family: feedback-iconfont; src: url("//at.alicdn.com/t/font_1031158_u69w8yhxdu.woff2?t=1630033759944") format("woff2"), url("//at.alicdn.com/t/font_1031158_u69w8yhxdu.woff?t=1630033759944") format("woff"), url("//at.alicdn.com/t/font_1031158_u69w8yhxdu.ttf?t=1630033759944") format("truetype"); }
</style></defs><path d="M512 981.333333C251.733333 981.333333 42.666667 772.266667 42.666667 512S251.733333 42.666667 512 42.666667s469.333333 209.066667 469.333333 469.333333-209.066667 469.333333-469.333333 469.333333z m0-853.333333c-213.333333 0-384 170.666667-384 384s170.666667 384 384 384 384-170.666667 384-384-170.666667-384-384-384z" p-id="2375" fill="#1296db"></path><path d="M512 725.333333c-25.6 0-42.666667-17.066667-42.666667-42.666666v-170.666667c0-25.6 17.066667-42.666667 42.666667-42.666667s42.666667 17.066667 42.666667 42.666667v170.666667c0 25.6-17.066667 42.666667-42.666667 42.666666zM512 384c-4.266667 0-12.8 0-17.066667-4.266667-4.266667-4.266667-8.533333-4.266667-12.8-8.533333-8.533333-8.533333-12.8-17.066667-12.8-29.866667v-8.533333c0-4.266667 0-4.266667 4.266667-8.533333 0-4.266667 4.266667-4.266667 4.266667-8.533334s4.266667-4.266667 4.266666-4.266666c4.266667-4.266667 8.533333-8.533333 12.8-8.533334 17.066667-8.533333 34.133333-4.266667 46.933334 8.533334l4.266666 4.266666c0 4.266667 4.266667 4.266667 4.266667 8.533334s0 4.266667 4.266667 8.533333V341.333333c0 12.8-4.266667 21.333333-12.8 29.866667-4.266667 0-4.266667 4.266667-4.266667 4.266667-4.266667 0-4.266667 4.266667-8.533333 4.266666s-4.266667 0-8.533334 4.266667H512z" p-id="2376" fill="#1296db"></path></svg>