<?xml version="1.0" standalone="no"?><!DOCTYPE svg PUBLIC "-//W3C//DTD SVG 1.1//EN" "http://www.w3.org/Graphics/SVG/1.1/DTD/svg11.dtd"><svg t="1658815613426" class="icon" viewBox="0 0 1024 1024" version="1.1" xmlns="http://www.w3.org/2000/svg" p-id="2561" xmlns:xlink="http://www.w3.org/1999/xlink" width="200" height="200"><defs><style type="text/css">@font-face { font-family: feedback-iconfont; src: url("//at.alicdn.com/t/font_1031158_u69w8yhxdu.woff2?t=1630033759944") format("woff2"), url("//at.alicdn.com/t/font_1031158_u69w8yhxdu.woff?t=1630033759944") format("woff"), url("//at.alicdn.com/t/font_1031158_u69w8yhxdu.ttf?t=1630033759944") format("truetype"); }
</style></defs><path d="M256 512.042667c-0.042667 3.456 0.554667 6.741333 1.322667 10.112 0.341333 1.450667 0.554667 2.858667 1.066666 4.266666 2.304 6.954667 5.717333 13.525333 11.477334 18.688l427.178666 382.762667a42.461867 42.461867 0 0 0 60.288-3.754667c15.573333-17.834667 13.909333-45.312-3.712-61.098666L361.898667 512.042667l391.722666-351.061334c17.621333-15.786667 19.285333-43.264 3.712-61.098666a42.461867 42.461867 0 0 0-60.288-3.754667L269.866667 478.976c-5.76 5.162667-9.173333 11.733333-11.477334 18.688-0.512 1.408-0.725333 2.816-1.066666 4.266667-0.768 3.370667-1.365333 6.656-1.322667 10.112" p-id="2562"></path></svg>