<?xml version="1.0" standalone="no"?><!DOCTYPE svg PUBLIC "-//W3C//DTD SVG 1.1//EN" "http://www.w3.org/Graphics/SVG/1.1/DTD/svg11.dtd"><svg t="1658818744227" class="icon" viewBox="0 0 1024 1024" version="1.1" xmlns="http://www.w3.org/2000/svg" p-id="834" xmlns:xlink="http://www.w3.org/1999/xlink" width="200" height="200"><defs><style type="text/css">@font-face { font-family: feedback-iconfont; src: url("//at.alicdn.com/t/font_1031158_u69w8yhxdu.woff2?t=1630033759944") format("woff2"), url("//at.alicdn.com/t/font_1031158_u69w8yhxdu.woff?t=1630033759944") format("woff"), url("//at.alicdn.com/t/font_1031158_u69w8yhxdu.ttf?t=1630033759944") format("truetype"); }
</style></defs><path d="M752 511.95999969c0.048-3.24-0.51199969-6.31999969-1.23199969-9.48-0.31999969-1.36000031-0.52000031-2.68000031-1.00000031-3.99999938-2.16-6.52000031-5.35999969-12.67999969-10.75999969-17.52l-400.48000031-358.84000031a39.80800031 39.80800031 0 0 0-56.52 3.52000031c-14.59999969 16.72000031-13.03999969 42.48 3.48 57.27999938l367.24000031 329.04-367.24000031 329.12000062c-16.51999969 14.80000031-18.07999969 40.56-3.48 57.27999938a39.80800031 39.80800031 0 0 0 56.52 3.52000031l400.48000031-358.92c5.4-4.84000031 8.59999969-10.99999969 10.75999969-17.52 0.48-1.32 0.67999969-2.64 1.00000031-4.00000031 0.72-3.16000031 1.27999969-6.24 1.23999938-9.48" p-id="835"></path></svg>