<?xml version="1.0" standalone="no"?><!DOCTYPE svg PUBLIC "-//W3C//DTD SVG 1.1//EN"
        "http://www.w3.org/Graphics/SVG/1.1/DTD/svg11.dtd">
<svg t="1657906116048" class="icon" viewBox="0 0 1024 1024" version="1.1" xmlns="http://www.w3.org/2000/svg" p-id="5490"
     xmlns:xlink="http://www.w3.org/1999/xlink" width="200" height="200">
    <defs>
        <style type="text/css">@font-face { font-family: feedback-iconfont; src:
            url("//at.alicdn.com/t/font_1031158_u69w8yhxdu.woff2?t=1630033759944") format("woff2"),
            url("//at.alicdn.com/t/font_1031158_u69w8yhxdu.woff?t=1630033759944") format("woff"),
            url("//at.alicdn.com/t/font_1031158_u69w8yhxdu.ttf?t=1630033759944") format("truetype"); }
        </style>
    </defs>
    <path d="M341.333333 796.444444v56.888889h284.444445v-56.888889H341.333333z m-142.222222 56.888889C91.022222 853.333333 0 762.311111 0 654.222222 0 551.822222 73.955556 472.177778 170.666667 455.111111c11.377778-159.288889 147.911111-284.444444 312.888889-284.444444s295.822222 125.155556 312.888888 284.444444c96.711111 11.377778 170.666667 96.711111 170.666667 199.111111 0 108.088889-91.022222 199.111111-199.111111 199.111111h-568.888889z m568.888889-56.888889c79.644444 0 142.222222-62.577778 142.222222-142.222222 0-73.955556-51.2-130.844444-125.155555-142.222222l-45.511111-5.688889v-45.511111C728.177778 329.955556 614.4 227.555556 483.555556 227.555556S238.933333 329.955556 227.555556 460.8l-5.688889 45.511111-39.822223 5.688889C108.088889 523.377778 56.888889 580.266667 56.888889 654.222222 56.888889 733.866667 119.466667 796.444444 199.111111 796.444444h568.888889z"
          p-id="5491"></path>
    <path d="M484.408889 395.377778l201.159111 201.102222-40.220444 40.220444-201.159112-201.102222z"
          p-id="5492"></path>
    <path d="M282.737778 599.324444L483.84 398.222222l40.220444 40.220445-201.102222 201.159111z"
          p-id="5493"></path>
    <path d="M455.111111 455.111111h56.888889v455.111111H455.111111z"  p-id="5494"></path>
</svg>
