<?xml version="1.0" standalone="no"?><!DOCTYPE svg PUBLIC "-//W3C//DTD SVG 1.1//EN" "http://www.w3.org/Graphics/SVG/1.1/DTD/svg11.dtd"><svg t="1657629944787" class="icon" viewBox="0 0 1024 1024" version="1.1" xmlns="http://www.w3.org/2000/svg" p-id="1636" xmlns:xlink="http://www.w3.org/1999/xlink" width="200" height="200"><defs><style type="text/css">@font-face { font-family: feedback-iconfont; src: url("//at.alicdn.com/t/font_1031158_u69w8yhxdu.woff2?t=1630033759944") format("woff2"), url("//at.alicdn.com/t/font_1031158_u69w8yhxdu.woff?t=1630033759944") format("woff"), url("//at.alicdn.com/t/font_1031158_u69w8yhxdu.ttf?t=1630033759944") format("truetype"); }
</style></defs><path d="M512.064974 0a511.740759 511.740759 0 0 0 0 1024c83.345823 0 141.674937-19.443038 178.098228-59.625316 50.681519-55.866329 43.033924-134.156962 36.941772-197.152406-6.481013-67.143291-6.092152-96.826329 13.739747-107.455189a79.716456 79.716456 0 0 1 38.108355-9.98076c25.924051 0 53.014684 12.962025 78.549873 26.831393s48.737215 25.146329 75.179747 25.146329c90.734177 0 90.734177-118.602532 90.734177-189.50481A512.259241 512.259241 0 0 0 512.064974 0z m420.617722 650.17519c-33.701266 0-86.97519-51.848101-153.72962-51.848101a129.620253 129.620253 0 0 0-62.217722 16.072911C584.522696 684.524557 819.135354 972.151899 512.064974 972.151899A460.540759 460.540759 0 1 1 972.476114 511.740759c0 107.844051-14.128608 138.43443-39.793418 138.434431z" fill="#a6adb4" p-id="1637"></path><path d="M526.063962 656.785823a102.4 102.4 0 1 0 102.270379 102.4 102.52962 102.52962 0 0 0-102.270379-102.4z m0 153.6a51.848101 51.848101 0 1 1 51.070379-51.848101 51.848101 51.848101 0 0 1-51.070379 51.848101z" fill="#a6adb4" p-id="1638"></path><path d="M275.378392 572.921519a114.584304 114.584304 0 0 0-103.696203 71.80962 65.717468 65.717468 0 0 0 22.035444 76.216709c11.665823 9.203038 14.517468 22.165063 17.887594 42.515443 3.888608 22.813165 10.888101 64.810127 63.513925 64.810127 58.069873 0 71.420759-41.996962 82.17924-75.698228a225.28 225.28 0 0 1 15.55443-40.182279 87.752911 87.752911 0 0 0-1.814683-88.271392 111.343797 111.343797 0 0 0-95.659747-51.2z m52.496203 115.880506a298.126582 298.126582 0 0 0-19.183798 48.866836c-11.406582 35.77519-14.776709 40.052658-33.312405 40.052658a17.239494 17.239494 0 0 1-7.517975-1.036962 69.087595 69.087595 0 0 1-5.44405-21.516962c-3.758987-22.035443-8.684557-51.848101-36.812152-74.272405A15.035949 15.035949 0 0 1 220.678645 661.063291a63.254684 63.254684 0 0 1 55.088608-37.330633 60.791899 60.791899 0 0 1 51.848101 26.961013 36.423291 36.423291 0 0 1 0.259241 38.108354z" fill="#a6adb4" p-id="1639"></path><path d="M379.852316 401.822785c0-52.625823-38.886076-95.400506-86.586329-95.400507a83.086582 83.086582 0 0 0-59.366076 25.924051c-10.24 10.24-23.072405 11.276962-42.904304 11.795443-21.776203 0-67.013671 1.685063-67.013671 57.551393a127.93519 127.93519 0 0 0 255.87038 0z m-204.67038 0v-5.18481a107.973671 107.973671 0 0 1 16.980253-1.166583 105.770127 105.770127 0 0 0 77.772152-26.831392c23.331646-23.331646 58.847595-5.703291 58.717975 33.182785a76.73519 76.73519 0 0 1-153.47038 0z" fill="#a6adb4" p-id="1640"></path><path d="M471.623455 108.103291c-31.627342 0-127.93519 0-127.93519 92.678481a128.06481 128.06481 0 0 0 127.93519 127.93519c71.031899 0 156.710886-57.032911 156.710886-127.93519 0-34.608608-20.35038-92.678481-156.710886-92.678481z m0 169.413671a76.86481 76.86481 0 0 1-76.73519-76.73519c0-22.683544 5.703291-41.608101 76.73519-41.608101 31.756962 0 105.510886 4.147848 105.510886 41.608101s-60.403038 76.73519-105.510886 76.73519z" fill="#a6adb4" p-id="1641"></path><path d="M755.232569 206.614684c-28.775696 0-46.663291 22.424304-65.458228 46.27443-5.05519 6.351392-10.499241 12.962025-16.461772 20.091139-19.961519 23.072405-36.812152 43.941266-42.774683 67.143291-7.129114 28.127595 3.240506 54.310886 30.590379 77.772152a116.658228 116.658228 0 0 0 75.438988 32.793924c28.775696 0 55.607089-14.258228 79.846076-42.385823a128.06481 128.06481 0 0 0-12.962026-180.431392 73.883544 73.883544 0 0 0-48.218734-21.257721z m22.424304 168.506329c-27.479494 31.756962-50.551899 32.405063-83.086582 4.407088-17.369114-15.16557-15.42481-22.683544-14.387848-26.701772a150.100253 150.100253 0 0 1 31.886582-46.404051c6.481013-7.517975 12.962025-14.906329 17.757975-21.776202 8.166076-10.36962 20.60962-25.924051 25.92405-26.831392 0 0 4.277468 0 14.517469 9.073417a75.568608 75.568608 0 0 1 25.92405 51.848102 76.346329 76.346329 0 0 1-18.146835 56.38481z" fill="#a6adb4" p-id="1642"></path></svg>