<?xml version="1.0" standalone="no"?><!DOCTYPE svg PUBLIC "-//W3C//DTD SVG 1.1//EN" "http://www.w3.org/Graphics/SVG/1.1/DTD/svg11.dtd"><svg t="1657629921661" class="icon" viewBox="0 0 1024 1024" version="1.1" xmlns="http://www.w3.org/2000/svg" p-id="1058" xmlns:xlink="http://www.w3.org/1999/xlink" width="200" height="200"><defs><style type="text/css">@font-face { font-family: feedback-iconfont; src: url("//at.alicdn.com/t/font_1031158_u69w8yhxdu.woff2?t=1630033759944") format("woff2"), url("//at.alicdn.com/t/font_1031158_u69w8yhxdu.woff?t=1630033759944") format("woff"), url("//at.alicdn.com/t/font_1031158_u69w8yhxdu.ttf?t=1630033759944") format("truetype"); }
</style></defs><path d="M683.1616 395.1104m-220.672 0a220.672 220.672 0 1 0 441.344 0 220.672 220.672 0 1 0-441.344 0Z" fill="#FC9709" p-id="1059"></path><path d="M726.8352 169.728c-10.24-2.048-16.9984-12.0832-14.9504-22.3232l12.3904-62.8224c2.048-10.24 12.0832-16.9984 22.3232-14.9504 10.24 2.048 16.9984 12.0832 14.9504 22.3232l-12.3904 62.8224c-2.048 10.24-12.0832 16.9984-22.3232 14.9504zM585.984 187.136c-9.472 4.4032-20.8384 0.2048-25.2416-9.2672l-26.88-58.112c-4.4032-9.472-0.2048-20.8384 9.2672-25.2416 9.472-4.4032 20.8384-0.2048 25.2416 9.2672l26.88 58.112c4.4032 9.472 0.256 20.8384-9.2672 25.2416zM482.304 283.9552c-5.12 9.1136-16.7424 12.4416-25.856 7.3216l-55.9104-31.232c-9.1136-5.12-12.4416-16.7424-7.3216-25.856 5.12-9.1136 16.7424-12.4416 25.856-7.3216l55.9104 31.232c9.1136 5.0688 12.3904 16.6912 7.3216 25.856zM455.3216 423.2192a19.10784 19.10784 0 0 1-16.5888 21.1456l-63.5904 7.5776a19.10784 19.10784 0 0 1-21.1456-16.5888 19.10784 19.10784 0 0 1 16.5888-21.1456l63.5904-7.5776c10.3936-1.28 19.8656 6.1952 21.1456 16.5888zM515.328 551.7824c7.1168 7.68 6.656 19.7632-1.024 26.88l-46.9504 43.52a19.06688 19.06688 0 0 1-26.88-1.024c-7.1168-7.68-6.656-19.7632 1.024-26.88l46.9504-43.52c7.68-7.1168 19.7632-6.656 26.88 1.024zM639.4368 620.4928c10.24 2.048 16.9984 12.0832 14.9504 22.3232l-12.3904 62.8224c-2.048 10.24-12.0832 16.9984-22.3232 14.9504-10.24-2.048-16.9984-12.0832-14.9504-22.3232l12.3904-62.8224c2.048-10.24 12.0832-16.9984 22.3232-14.9504zM780.288 603.136c9.472-4.4032 20.8384-0.2048 25.2416 9.2672l26.88 58.112c4.4032 9.472 0.2048 20.8384-9.2672 25.2416-9.472 4.4032-20.8384 0.2048-25.2416-9.2672l-26.88-58.112c-4.4032-9.5232-0.256-20.8896 9.2672-25.2416zM883.968 506.3168c5.12-9.1136 16.7424-12.4416 25.856-7.3216l55.9104 31.232c9.1136 5.12 12.4416 16.7424 7.3216 25.856-5.12 9.1136-16.7424 12.4416-25.856 7.3216l-55.9104-31.232a19.0976 19.0976 0 0 1-7.3216-25.856zM911.0016 367.0016a19.10784 19.10784 0 0 1 16.5888-21.1456l63.5904-7.5776a19.10784 19.10784 0 0 1 21.1456 16.5888 19.10784 19.10784 0 0 1-16.5888 21.1456l-63.5904 7.5776a19.00544 19.00544 0 0 1-21.1456-16.5888zM850.944 238.4384c-7.1168-7.68-6.656-19.7632 1.024-26.88l46.9504-43.52c7.68-7.1168 19.7632-6.656 26.88 1.024 7.1168 7.68 6.656 19.7632-1.024 26.88l-46.9504 43.52a19.06688 19.06688 0 0 1-26.88-1.024z" fill="#FC9709" p-id="1060"></path><path d="M361.8816 548.1984m-280.1152 0a280.1152 280.1152 0 1 0 560.2304 0 280.1152 280.1152 0 1 0-560.2304 0Z" fill="#9FDFFF" p-id="1061"></path><path d="M683.776 734.5664m-247.3984 0a247.3984 247.3984 0 1 0 494.7968 0 247.3984 247.3984 0 1 0-494.7968 0Z" fill="#78CCFF" p-id="1062"></path><path d="M230.9632 757.9136m-224.1024 0a224.1024 224.1024 0 1 0 448.2048 0 224.1024 224.1024 0 1 0-448.2048 0Z" fill="#78CCFF" p-id="1063"></path><path d="M228.608 757.9136h452.8128v224.1024H228.608z" fill="#78CCFF" p-id="1064"></path></svg>