<?xml version="1.0" standalone="no"?><!DOCTYPE svg PUBLIC "-//W3C//DTD SVG 1.1//EN" "http://www.w3.org/Graphics/SVG/1.1/DTD/svg11.dtd"><svg t="1658099329572" class="icon" viewBox="0 0 1024 1024" version="1.1" xmlns="http://www.w3.org/2000/svg" p-id="7855" xmlns:xlink="http://www.w3.org/1999/xlink" width="200" height="200"><defs><style type="text/css">@font-face { font-family: feedback-iconfont; src: url("//at.alicdn.com/t/font_1031158_u69w8yhxdu.woff2?t=1630033759944") format("woff2"), url("//at.alicdn.com/t/font_1031158_u69w8yhxdu.woff?t=1630033759944") format("woff"), url("//at.alicdn.com/t/font_1031158_u69w8yhxdu.ttf?t=1630033759944") format("truetype"); }
</style></defs><path d="M512 733.090909a35.141818 35.141818 0 0 1-24.669091-10.24l-372.363636-372.363636a34.909091 34.909091 0 1 1 49.338182-49.338182l372.363636 372.363636a34.676364 34.676364 0 0 1 0 49.338182 35.141818 35.141818 0 0 1-24.669091 10.24z" p-id="7856"></path><path d="M512 733.090909a35.141818 35.141818 0 0 1-24.669091-10.24 34.676364 34.676364 0 0 1 0-49.338182l372.363636-372.363636a34.909091 34.909091 0 0 1 49.338182 49.338182l-372.363636 372.363636a35.141818 35.141818 0 0 1-24.669091 10.24z" p-id="7857"></path></svg>