<?xml version="1.0" standalone="no"?><!DOCTYPE svg PUBLIC "-//W3C//DTD SVG 1.1//EN" "http://www.w3.org/Graphics/SVG/1.1/DTD/svg11.dtd"><svg t="1657629912074" class="icon" viewBox="0 0 1024 1024" version="1.1" xmlns="http://www.w3.org/2000/svg" p-id="919" xmlns:xlink="http://www.w3.org/1999/xlink" width="200" height="200"><defs><style type="text/css">@font-face { font-family: feedback-iconfont; src: url("//at.alicdn.com/t/font_1031158_u69w8yhxdu.woff2?t=1630033759944") format("woff2"), url("//at.alicdn.com/t/font_1031158_u69w8yhxdu.woff?t=1630033759944") format("woff"), url("//at.alicdn.com/t/font_1031158_u69w8yhxdu.ttf?t=1630033759944") format("truetype"); }
</style></defs><path d="M256 512.1c-0.1 141.4 114.5 256.2 255.9 256.2s256-114.6 256.1-256v-0.2C768 370.7 653.4 256 512 256S256 370.6 256 512.1zM512 192c-11 0-20-9-20-20v-56c0-11 9-20 20-20s20 9 20 20v56c0 11-9 20-20 20zM352 234.9c-9.6 5.5-21.8 2.2-27.3-7.3l-28-48.5c-5.5-9.6-2.2-21.8 7.3-27.3 9.6-5.5 21.8-2.2 27.3 7.3l28 48.5c5.5 9.5 2.3 21.7-7.3 27.3zM234.9 352c-5.5 9.6-17.8 12.8-27.3 7.3l-48.5-28c-9.6-5.5-12.8-17.8-7.3-27.3 5.5-9.6 17.8-12.8 27.3-7.3l48.5 28c9.5 5.5 12.8 17.7 7.3 27.3zM192 512c0 11-9 20-20 20h-56c-11 0-20-9-20-20s9-20 20-20h56c11 0 20 9 20 20zM234.9 672c5.5 9.6 2.2 21.8-7.3 27.3l-48.5 28c-9.6 5.5-21.8 2.2-27.3-7.3-5.5-9.6-2.2-21.8 7.3-27.3l48.5-28c9.5-5.5 21.7-2.3 27.3 7.3zM352 789.1c9.6 5.5 12.8 17.8 7.3 27.3l-28 48.5c-5.5 9.6-17.8 12.8-27.3 7.3-9.6-5.5-12.8-17.8-7.3-27.3l28-48.5c5.5-9.5 17.7-12.8 27.3-7.3zM512 832c11 0 20 9 20 20v56c0 11-9 20-20 20s-20-9-20-20v-56c0-11 9-20 20-20zM672 789.1c9.6-5.5 21.8-2.2 27.3 7.3l28 48.5c5.5 9.6 2.2 21.8-7.3 27.3-9.6 5.5-21.8 2.2-27.3-7.3l-28-48.5c-5.5-9.5-2.3-21.7 7.3-27.3zM789.1 672c5.5-9.6 17.8-12.8 27.3-7.3l48.5 28c9.6 5.5 12.8 17.8 7.3 27.3-5.5 9.6-17.8 12.8-27.3 7.3l-48.5-28c-9.5-5.5-12.8-17.7-7.3-27.3zM832 512c0-11 9-20 20-20h56c11 0 20 9 20 20s-9 20-20 20h-56c-11 0-20-9-20-20zM789.1 352c-5.5-9.6-2.2-21.8 7.3-27.3l48.5-28c9.6-5.5 21.8-2.2 27.3 7.3 5.5 9.6 2.2 21.8-7.3 27.3l-48.5 28c-9.5 5.5-21.7 2.3-27.3-7.3zM672 234.9c-9.6-5.5-12.8-17.8-7.3-27.3l28-48.5c5.5-9.6 17.8-12.8 27.3-7.3 9.6 5.5 12.8 17.8 7.3 27.3l-28 48.5c-5.5 9.5-17.7 12.8-27.3 7.3z" fill="#EDA915" p-id="920"></path></svg>