<?xml version="1.0" standalone="no"?><!DOCTYPE svg PUBLIC "-//W3C//DTD SVG 1.1//EN" "http://www.w3.org/Graphics/SVG/1.1/DTD/svg11.dtd"><svg t="1657610230912" class="icon" viewBox="0 0 1024 1024" version="1.1" xmlns="http://www.w3.org/2000/svg" p-id="4581" xmlns:xlink="http://www.w3.org/1999/xlink" width="200" height="200"><defs><style type="text/css">@font-face { font-family: feedback-iconfont; src: url("//at.alicdn.com/t/font_1031158_u69w8yhxdu.woff2?t=1630033759944") format("woff2"), url("//at.alicdn.com/t/font_1031158_u69w8yhxdu.woff?t=1630033759944") format("woff"), url("//at.alicdn.com/t/font_1031158_u69w8yhxdu.ttf?t=1630033759944") format("truetype"); }
</style></defs><path d="M615.904 388.48c8.8 0 17.536 0.64 26.176 1.6-23.52-109.536-140.608-190.912-274.272-190.912C218.4 199.2 96 301.056 96 430.4c0 74.656 40.736 135.936 108.768 183.488l-27.2 81.792 95.04-47.648c33.984 6.72 61.28 13.632 95.2 13.632 8.544 0 16.992-0.416 25.376-1.088a202.496 202.496 0 0 1-8.384-56.96c0-118.752 101.984-215.136 231.104-215.136zM469.76 314.784c20.48 0 34.016 13.472 34.016 33.92 0 20.352-13.536 34.016-34.016 34.016-20.384 0-40.832-13.664-40.832-34.016 0-20.448 20.448-33.92 40.832-33.92zM279.52 382.72c-20.384 0-40.928-13.664-40.928-34.016 0-20.448 20.544-33.92 40.928-33.92 20.352 0 33.92 13.472 33.92 33.92 0 20.384-13.568 34.016-33.92 34.016z" fill="" p-id="4582"></path><path d="M864 600.352c0-108.672-108.736-197.28-230.88-197.28-129.344 0-231.2 88.576-231.2 197.28 0 108.864 101.856 197.248 231.2 197.248 27.072 0 54.368-6.816 81.568-13.632l74.56 40.8-20.448-67.904C823.328 715.936 864 661.664 864 600.352z m-305.856-34.016c-13.536 0-27.2-13.44-27.2-27.2 0-13.568 13.664-27.2 27.2-27.2 20.576 0 34.016 13.632 34.016 27.2 0 13.76-13.44 27.2-34.016 27.2z m149.536 0c-13.44 0-27.008-13.44-27.008-27.2 0-13.568 13.568-27.2 27.008-27.2 20.352 0 34.016 13.632 34.016 27.2 0 13.76-13.664 27.2-34.016 27.2z" fill="" p-id="4583"></path></svg>