<?xml version="1.0" standalone="no"?><!DOCTYPE svg PUBLIC "-//W3C//DTD SVG 1.1//EN" "http://www.w3.org/Graphics/SVG/1.1/DTD/svg11.dtd"><svg t="1657629936793" class="icon" viewBox="0 0 1024 1024" version="1.1" xmlns="http://www.w3.org/2000/svg" p-id="1492" xmlns:xlink="http://www.w3.org/1999/xlink" width="200" height="200"><defs><style type="text/css">@font-face { font-family: feedback-iconfont; src: url("//at.alicdn.com/t/font_1031158_u69w8yhxdu.woff2?t=1630033759944") format("woff2"), url("//at.alicdn.com/t/font_1031158_u69w8yhxdu.woff?t=1630033759944") format("woff"), url("//at.alicdn.com/t/font_1031158_u69w8yhxdu.ttf?t=1630033759944") format("truetype"); }
</style></defs><path d="M402.432 558.4384m-286.5152 0a286.5152 286.5152 0 1 0 573.0304 0 286.5152 286.5152 0 1 0-573.0304 0Z" fill="#9FDFFF" p-id="1493"></path><path d="M731.648 749.1072m-253.0816 0a253.0816 253.0816 0 1 0 506.1632 0 253.0816 253.0816 0 1 0-506.1632 0Z" fill="#78CCFF" p-id="1494"></path><path d="M268.4416 772.9664m-229.2224 0a229.2224 229.2224 0 1 0 458.4448 0 229.2224 229.2224 0 1 0-458.4448 0Z" fill="#78CCFF" p-id="1495"></path><path d="M266.0864 772.9664h463.2064v229.2224H266.0864zM877.1584 460.4928H405.7088c-20.4288 0-37.12-16.6912-37.12-37.12s16.6912-37.12 37.12-37.12h471.4496c20.4288 0 37.12 16.6912 37.12 37.12s-16.6912 37.12-37.12 37.12z" fill="#78CCFF" p-id="1496"></path><path d="M877.1584 231.8336h-342.3744c-20.4288 0-37.12-16.6912-37.12-37.12s16.6912-37.12 37.12-37.12h342.3744c20.4288 0 37.12 16.6912 37.12 37.12s-16.6912 37.12-37.12 37.12z" fill="#9FDFFF" p-id="1497"></path><path d="M880.9984 346.1632h-228.7616c-20.4288 0-37.12-16.6912-37.12-37.12s16.6912-37.12 37.12-37.12h228.7616c20.4288 0 37.12 16.6912 37.12 37.12-0.0512 20.4288-16.7424 37.12-37.12 37.12z" fill="#78CCFF" p-id="1498"></path></svg>